<svg xmlns="http://www.w3.org/2000/svg" width="3000" height="2200" viewBox="0 0 3000 2200" role="img" aria-labelledby="title desc">
<title id="title">F0.1: The Product Intent Loop</title>
<desc id="desc">A coral product-intent path moves through signal, evidence, decision, specification, system behavior, review, release, measurement, and learning across five operating floors.</desc>
<rect data-figure-background="true" width="100%" height="100%" fill="#FFFFFF" />
<rect width="3000" height="2200" fill="#FAFAFA"/>
<text x="150" y="125" fill="#242424" font-family="Newsreader, sans-serif" font-size="70" font-weight="620" text-anchor="start" dy="0">THE PRODUCT INTENT LOOP</text>
<text x="154" y="225" fill="#6D6D6D" font-family="Manrope, sans-serif" font-size="27" font-weight="520" text-anchor="start" dy="0">Product judgment stays credible when each transition remains inspectable.</text>
<rect x="150" y="345" width="190" height="14" rx="7" fill="#404040" stroke="none" stroke-width="1"/>
<polygon points="130,430 560,470 540,1920 110,1880" fill="#E2E2E2" stroke="none"/>
<text x="160" y="1840" fill="#6D6D6D" font-family="Manrope, sans-serif" font-size="22" font-weight="800" text-anchor="start" dy="0">FLOOR 1</text>
<polygon points="690,430 1120,470 1100,1920 670,1880" fill="#D6D6D6" stroke="none"/>
<text x="720" y="1840" fill="#6D6D6D" font-family="Manrope, sans-serif" font-size="22" font-weight="800" text-anchor="start" dy="0">FLOOR 2</text>
<polygon points="1250,430 1680,470 1660,1920 1230,1880" fill="#ECECEC" stroke="none"/>
<text x="1280" y="1840" fill="#6D6D6D" font-family="Manrope, sans-serif" font-size="22" font-weight="800" text-anchor="start" dy="0">FLOOR 3</text>
<polygon points="1810,430 2240,470 2220,1920 1790,1880" fill="#E2E2E2" stroke="none"/>
<text x="1840" y="1840" fill="#6D6D6D" font-family="Manrope, sans-serif" font-size="22" font-weight="800" text-anchor="start" dy="0">FLOOR 4</text>
<polygon points="2370,430 2800,470 2780,1920 2350,1880" fill="#D6D6D6" stroke="none"/>
<text x="2400" y="1840" fill="#6D6D6D" font-family="Manrope, sans-serif" font-size="22" font-weight="800" text-anchor="start" dy="0">FLOOR 5</text>
<polyline points="390.0,800.0 403.0,800.0 403.0,570.0 416.0,570.0" fill="none" stroke="#404040" stroke-width="12" stroke-linecap="round" stroke-linejoin="round"/>
<polygon points="416,570 392,580 392,560" fill="#404040" stroke="none"/>
<polyline points="730.0,570.0 743.0,570.0 743.0,800.0 756.0,800.0" fill="none" stroke="#404040" stroke-width="12" stroke-linecap="round" stroke-linejoin="round"/>
<polygon points="756,800 732,810 732,790" fill="#404040" stroke="none"/>
<polyline points="1070.0,800.0 1083.0,800.0 1083.0,1050.0 1096.0,1050.0" fill="none" stroke="#404040" stroke-width="12" stroke-linecap="round" stroke-linejoin="round"/>
<polygon points="1096,1050 1072,1060 1072,1040" fill="#404040" stroke="none"/>
<polyline points="1890.0,1050.0 1903.0,1050.0 1903.0,800.0 1916.0,800.0" fill="none" stroke="#404040" stroke-width="12" stroke-linecap="round" stroke-linejoin="round"/>
<polygon points="1916,800 1892,810 1892,790" fill="#404040" stroke="none"/>
<polyline points="2230.0,800.0 2243.0,800.0 2243.0,570.0 2256.0,570.0" fill="none" stroke="#404040" stroke-width="12" stroke-linecap="round" stroke-linejoin="round"/>
<polygon points="2256,570 2232,580 2232,560" fill="#404040" stroke="none"/>
<polyline points="2570.0,570.0 2573.0,570.0 2573.0,850.0 2576.0,850.0" fill="none" stroke="#404040" stroke-width="12" stroke-linecap="round" stroke-linejoin="round"/>
<polygon points="2576,850 2552,860 2552,840" fill="#404040" stroke="none"/>
<polyline points="2740.0,935.0 2740.0,1143.0 2260.0,1143.0 2260.0,1351.0" fill="none" stroke="#404040" stroke-width="12" stroke-linecap="round" stroke-linejoin="round"/>
<polygon points="2260,1351 2250,1327 2270,1327" fill="#404040" stroke="none"/>
<polyline points="1410.0,1050.0 1576.0,1050.0" fill="none" stroke="#404040" stroke-width="12" stroke-linecap="round" stroke-linejoin="round"/>
<polygon points="1576,1050 1552,1060 1552,1040" fill="#404040" stroke="none"/>
<polyline points="2260.0,1535.0 2260.0,1730.0 50.0,1730.0 50.0,800.0 76.0,800.0" fill="none" stroke="#404040" stroke-width="12" stroke-linecap="round" stroke-linejoin="round"/>
<polygon points="76,800 52,810 52,790" fill="#404040" stroke="none"/>
<text x="1780" y="1688" fill="#242424" font-family="Manrope, sans-serif" font-size="22" font-weight="820" text-anchor="middle" dy="0.34em">NEXT SIGNAL</text>
<rect x="90" y="715" width="300" height="170" rx="22" fill="#FFFFFF" stroke="#242424" stroke-width="4"/>
<rect x="90" y="715" width="68" height="170" rx="20" fill="#E2E2E2" stroke="none" stroke-width="1"/>
<text x="124" y="800" fill="#242424" font-family="Manrope, sans-serif" font-size="30" font-weight="800" text-anchor="middle" dy="0.34em">01</text>
<text x="182" y="754" fill="#242424" font-family="Manrope, sans-serif" font-size="26" font-weight="720" text-anchor="start" dy="0">Signal</text>
<rect x="430" y="485" width="300" height="170" rx="22" fill="#FFFFFF" stroke="#242424" stroke-width="4"/>
<rect x="430" y="485" width="68" height="170" rx="20" fill="#E2E2E2" stroke="none" stroke-width="1"/>
<text x="464" y="570" fill="#242424" font-family="Manrope, sans-serif" font-size="30" font-weight="800" text-anchor="middle" dy="0.34em">02</text>
<text x="522" y="524" fill="#242424" font-family="Manrope, sans-serif" font-size="26" font-weight="720" text-anchor="start" dy="0">Evidence</text>
<rect x="770" y="715" width="300" height="170" rx="22" fill="#FFFFFF" stroke="#242424" stroke-width="4"/>
<rect x="770" y="715" width="68" height="170" rx="20" fill="#ECECEC" stroke="none" stroke-width="1"/>
<text x="804" y="800" fill="#242424" font-family="Manrope, sans-serif" font-size="30" font-weight="800" text-anchor="middle" dy="0.34em">03</text>
<text x="862" y="754" fill="#242424" font-family="Manrope, sans-serif" font-size="26" font-weight="720" text-anchor="start" dy="0">Decision</text>
<rect x="1110" y="965" width="300" height="170" rx="22" fill="#FFFFFF" stroke="#242424" stroke-width="4"/>
<rect x="1110" y="965" width="68" height="170" rx="20" fill="#E2E2E2" stroke="none" stroke-width="1"/>
<text x="1144" y="1050" fill="#242424" font-family="Manrope, sans-serif" font-size="30" font-weight="800" text-anchor="middle" dy="0.34em">04</text>
<text x="1202" y="1004" fill="#242424" font-family="Manrope, sans-serif" font-size="26" font-weight="720" text-anchor="start" dy="0">Specification</text>
<rect x="1590" y="965" width="300" height="170" rx="22" fill="#FFFFFF" stroke="#242424" stroke-width="4"/>
<rect x="1590" y="965" width="68" height="170" rx="20" fill="#E2E2E2" stroke="none" stroke-width="1"/>
<text x="1624" y="1050" fill="#242424" font-family="Manrope, sans-serif" font-size="30" font-weight="800" text-anchor="middle" dy="0.34em">05</text>
<text x="1682" y="1004" fill="#242424" font-family="Manrope, sans-serif" font-size="26" font-weight="720" text-anchor="start" dy="0">System</text>
<text x="1682" y="1031" fill="#242424" font-family="Manrope, sans-serif" font-size="26" font-weight="720" text-anchor="start" dy="0">behavior</text>
<rect x="1930" y="715" width="300" height="170" rx="22" fill="#FFFFFF" stroke="#242424" stroke-width="4"/>
<rect x="1930" y="715" width="68" height="170" rx="20" fill="#E2E2E2" stroke="none" stroke-width="1"/>
<text x="1964" y="800" fill="#242424" font-family="Manrope, sans-serif" font-size="30" font-weight="800" text-anchor="middle" dy="0.34em">06</text>
<text x="2022" y="754" fill="#242424" font-family="Manrope, sans-serif" font-size="26" font-weight="720" text-anchor="start" dy="0">Review</text>
<rect x="2270" y="485" width="300" height="170" rx="22" fill="#FFFFFF" stroke="#242424" stroke-width="4"/>
<rect x="2270" y="485" width="68" height="170" rx="20" fill="#ECECEC" stroke="none" stroke-width="1"/>
<text x="2304" y="570" fill="#242424" font-family="Manrope, sans-serif" font-size="30" font-weight="800" text-anchor="middle" dy="0.34em">07</text>
<text x="2362" y="524" fill="#242424" font-family="Manrope, sans-serif" font-size="26" font-weight="720" text-anchor="start" dy="0">Release</text>
<rect x="2590" y="765" width="300" height="170" rx="22" fill="#FFFFFF" stroke="#242424" stroke-width="4"/>
<rect x="2590" y="765" width="68" height="170" rx="20" fill="#E2E2E2" stroke="none" stroke-width="1"/>
<text x="2624" y="850" fill="#242424" font-family="Manrope, sans-serif" font-size="30" font-weight="800" text-anchor="middle" dy="0.34em">08</text>
<text x="2682" y="804" fill="#242424" font-family="Manrope, sans-serif" font-size="26" font-weight="720" text-anchor="start" dy="0">Measurement</text>
<rect x="2110" y="1365" width="300" height="170" rx="22" fill="#FFFFFF" stroke="#242424" stroke-width="4"/>
<rect x="2110" y="1365" width="68" height="170" rx="20" fill="#E2E2E2" stroke="none" stroke-width="1"/>
<text x="2144" y="1450" fill="#242424" font-family="Manrope, sans-serif" font-size="30" font-weight="800" text-anchor="middle" dy="0.34em">09</text>
<text x="2202" y="1404" fill="#242424" font-family="Manrope, sans-serif" font-size="26" font-weight="720" text-anchor="start" dy="0">Learning</text>
<text x="150" y="1990" fill="#242424" font-family="Newsreader, sans-serif" font-size="28" font-weight="500" text-anchor="start" dy="0">Learning changes what the team notices next. The loop does not end at release.</text>
<text x="2850" y="2050" fill="#6D6D6D" font-family="Manrope, sans-serif" font-size="24" font-weight="800" text-anchor="end" dy="0">F0.1</text>
</svg>
